{"title":"CHVRCHES - Austin City Limits Music Festival 2014 Set Oct.10","uid":11191562,"size":982883370,"categoryP":"video","categoryS":"music_videos","magnet":"?xt=urn:btih:440599d34a27cc2120e73f7d116d8aec0711c311&amp;dn=CHVRCHES+-+Austin+City+Limits+Music+Festival+2014+Set+Oct.10&amp;tr=udp%3A%2F%2Ftracker.openbittorrent.com%3A80&amp;tr=udp%3A%2F%2Fopen.demonii.com%3A1337&amp;tr=udp%3A%2F%2Ftracker.coppersurfer.tk%3A6969&amp;tr=udp%3A%2F%2Fexodus.desync.com%3A6969","seeders":7,"leechers":0,"uploader":"doragon69","files":2,"time":1412998901,"description":"direct rip of CHVRCHES set on the Red Bull stream of the Austin City Limits Music Festival\n\nThumbnails: &lt;a href=&quot;\nhttp://image.bayimg.com/6a457f0547b505456c5ec2e7738a037492162daa.jpg&quot; rel=&quot;nofollow&quot; target=&quot;_NEW&quot;&gt;\nhttp://image.bayimg.com/6a457f0547b505456c5ec2e7738a037492162daa.jpg&lt;/a&gt;\n\nVideo: MPEG4 Video (H264) 1280x720 29.97fps 2341kbps [Video]\nAudio: AAC 44100Hz stereo 125kbps [Audio]\n\nFormat                         : AVC\nFormat/Info                    : Advanced Video Codec\nFormat profile                 : &lt;a class=&quot;__cf_email__&quot; href=&quot;/cdn-cgi/l/email-protection&quot; data-cfemail=&quot;d994b8b0b79995eaf7e8&quot;&gt;[email&amp;#160;protected]&lt;/a&gt;&lt;script cf-hash='f9e31' type=&quot;text/javascript&quot;&gt;\n/* &lt;![CDATA[ */!function(){try{var t=&quot;currentScript&quot;in document?document.currentScript:function(){for(var t=document.getElementsByTagName(&quot;script&quot;),e=t.length;e--;)if(t[e].getAttribute(&quot;cf-hash&quot;))return t[e]}();if(t&amp;&amp;t.previousSibling){var e,r,n,i,c=t.previousSibling,a=c.getAttribute(&quot;data-cfemail&quot;);if(a){for(e=&quot;&quot;,r=parseInt(a.substr(0,2),16),n=2;a.length-n;n+=2)i=parseInt(a.substr(n,2),16)^r,e+=String.fromCharCode(i);e=document.createTextNode(e),c.parentNode.replaceChild(e,c)}}}catch(u){}}();/* ]]&gt; */&lt;/script&gt;\nFormat settings, CABAC         : Yes\nFormat settings, ReFrames      : 4 frames\nCodec ID                       : avc1\nCodec ID/Info                  : Advanced Video Coding\nDuration                       : 52mn 46s\nBit rate mode                  : Constant\nBit rate                       : 2 340 Kbps\nWidth                          : 1 280 pixels\nHeight                         : 720 pixels\nDisplay aspect ratio           : 16:9\nFrame rate mode                : Variable\nFrame rate                     : 30.470 fps\nOriginal frame rate            : 29.970 fps\nMinimum frame rate             : 29.412 fps\nMaximum frame rate             : 16 000.000 fps\nColor space                    : YUV\nChroma subsampling             : 4:2:0\nBit depth                      : 8 bits\nScan type                      : Progressive\nBits/(Pixel*Frame)             : 0.083\nStream size                    : 884 MiB (95%)\n\nAudio\nID                             : 2\nFormat                         : AAC\nFormat/Info                    : Advanced Audio Codec\nFormat profile                 : LC\nCodec ID                       : 40\nDuration                       : 52mn 46s\nBit rate mode                  : Constant\nBit rate                       : 126 Kbps\nChannel(s)                     : 2 channels\nChannel positions              : Front: L R\nSampling rate                  : 44.1 KHz\nCompression mode               : Lossy\nStream size                    : 47.4 MiB (5%)","torrent":{"xt":"urn:btih:440599d34a27cc2120e73f7d116d8aec0711c311","amp;dn":"CHVRCHES+-+Austin+City+Limits+Music+Festival+2014+Set+Oct.10","amp;tr":["udp%3A%2F%2Ftracker.openbittorrent.com%3A80","udp%3A%2F%2Fopen.demonii.com%3A1337","udp%3A%2F%2Ftracker.coppersurfer.tk%3A6969","udp%3A%2F%2Fexodus.desync.com%3A6969"],"infoHash":"440599d34a27cc2120e73f7d116d8aec0711c311","infoHashBuffer":{"type":"Buffer","data":[68,5,153,211,74,39,204,33,32,231,63,125,17,109,138,236,7,17,195,17]},"announce":[],"urlList":[]}}